<svg width="24" height="24" viewBox="0 0 24 24" fill="none" xmlns="http://www.w3.org/2000/svg">
<g id="function / search">
<path id="Vector (Stroke)" fill-rule="evenodd" clip-rule="evenodd" d="M10.875 4.5C7.35418 4.5 4.5 7.35418 4.5 10.875C4.5 14.3958 7.35418 17.25 10.875 17.25C14.3958 17.25 17.25 14.3958 17.25 10.875C17.25 7.35418 14.3958 4.5 10.875 4.5ZM3 10.875C3 6.52576 6.52576 3 10.875 3C15.2242 3 18.75 6.52576 18.75 10.875C18.75 15.2242 15.2242 18.75 10.875 18.75C6.52576 18.75 3 15.2242 3 10.875Z" fill="#111111"/>
<path id="Vector (Stroke)_2" fill-rule="evenodd" clip-rule="evenodd" d="M14.8447 15.9054L15.9054 14.8447L20.5607 19.5001L19.5001 20.5607L14.8447 15.9054Z" fill="#111111"/>
</g>
</svg>
